<svg id="SvgjsSvg1011" width="288" height="288" xmlns="http://www.w3.org/2000/svg" version="1.1" xmlnsXlink="http://www.w3.org/1999/xlink" xmlnsSvgjs="http://svgjs.com/svgjs"><defs id="SvgjsDefs1012"></defs><g id="SvgjsG1013" transform="matrix(1,0,0,1,0,0)"><svg xmlns="http://www.w3.org/2000/svg" enable-background="new 0 0 24 24" viewBox="0 0 24 24" width="288" height="288"><path d="M12.3,4.9c0.4-0.2,0.6-0.7,0.5-1.1S12.2,3,11.7,3C6.8,3.1,3,7.1,3,12c0,5,4,9,9,9c3.8,0,7.1-2.4,8.4-5.9
		c0.2-0.4,0-0.9-0.4-1.2c-0.4-0.3-0.9-0.2-1.2,0.1c-1,0.9-2.3,1.4-3.7,1.4c-3.1,0-5.7-2.5-5.7-5.7C9.4,7.8,10.5,5.9,12.3,4.9z
		 M15.1,17.4c0.5,0,1,0,1.4-0.1C15.3,18.4,13.7,19,12,19c-3.9,0-7-3.1-7-7c0-2.5,1.4-4.8,3.5-6c-0.7,1.1-1,2.4-1,3.8
		C7.4,14,10.9,17.4,15.1,17.4z" fill="#000000" class="color000 svgShape"></path></svg></g></svg>