<svg xmlns="http://www.w3.org/2000/svg" x="0px" y="0px"
width="48" height="48"
viewBox="0 0 172 172"
style=" fill:#000000;"><g fill="none" fill-rule="nonzero" stroke="none" stroke-width="1" stroke-linecap="butt" stroke-linejoin="miter" stroke-miterlimit="10" stroke-dasharray="" stroke-dashoffset="0" font-family="none" font-weight="none" font-size="none" text-anchor="none" style="mix-blend-mode: normal"><path d="M0,172v-172h172v172z" fill="none"></path><g fill="#000000"><path d="M60.91667,7.16667c-19.7585,0 -35.83333,16.07483 -35.83333,35.83333c0,19.7585 16.07483,35.83333 35.83333,35.83333c19.7585,0 35.83333,-16.07483 35.83333,-35.83333c0,-19.7585 -16.07483,-35.83333 -35.83333,-35.83333zM125.41667,86c-21.76875,0 -39.41667,17.64792 -39.41667,39.41667c0,21.76875 17.64792,39.41667 39.41667,39.41667c21.76875,0 39.41667,-17.64792 39.41667,-39.41667c0,-21.76875 -17.64792,-39.41667 -39.41667,-39.41667zM22.29785,93.16667c-7.353,0 -13.33952,6.39452 -13.33952,14.25635v5.45198c0,11.75692 6.07515,21.97423 17.11182,28.76465c9.28442,5.71542 21.65985,8.86035 34.84652,8.86035c7.8475,0 15.8796,-1.16184 23.21468,-3.54834c-3.36833,-6.44642 -5.29802,-13.75916 -5.29802,-21.53499c0,-12.52733 4.96941,-23.87933 13.01758,-32.25zM125.41667,96.75c1.978,0 3.58333,1.60533 3.58333,3.58333v21.5h21.5c1.978,0 3.58333,1.60533 3.58333,3.58333c0,1.978 -1.60533,3.58333 -3.58333,3.58333h-21.5v21.5c0,1.978 -1.60533,3.58333 -3.58333,3.58333c-1.978,0 -3.58333,-1.60533 -3.58333,-3.58333v-21.5h-21.5c-1.978,0 -3.58333,-1.60533 -3.58333,-3.58333c0,-1.978 1.60533,-3.58333 3.58333,-3.58333h21.5v-21.5c0,-1.978 1.60533,-3.58333 3.58333,-3.58333z"></path></g></g></svg>