<svg xmlns="http://www.w3.org/2000/svg" x="0px" y="0px"
width="47" height="47"
viewBox="0 0 172 172"
style=" fill:#000000;"><g fill="none" fill-rule="nonzero" stroke="none" stroke-width="1" stroke-linecap="butt" stroke-linejoin="miter" stroke-miterlimit="10" stroke-dasharray="" stroke-dashoffset="0" font-family="none" font-weight="none" font-size="none" text-anchor="none" style="mix-blend-mode: normal"><path d="M0,172v-172h172v172z" fill="none"></path><g><path d="M170.94724,72.55138c-2.08179,0.24021 -4.18138,-0.75324 -4.70331,-3.43407c-1.7289,-8.84317 -1.26034,-18.6709 -7.28628,-26.04614c-4.14283,-5.06807 -11.17407,-10.95462 -16.21248,-15.19531c-6.622,-5.57221 -15.12414,-7.92386 -22.72476,-11.73455c-5.91324,-2.96552 -14.33234,-12.14379 -21.24497,-10.01159c-4.0331,1.24552 -6.48262,-2.63041 -5.80648,-5.82428c-2.30124,-0.18386 -4.62028,-0.30545 -6.96897,-0.30545c-28.44524,0 -53.65214,13.81634 -69.3071,35.0969c1.00234,1.03497 1.49462,2.53848 0.92821,4.36524c-1.8149,5.85393 -1.99876,12.11414 -4.29407,17.82572c-2.14407,5.32903 -6.31655,9.13972 -7.93869,14.79497c-0.70876,2.47324 -2.72531,3.46372 -4.7211,3.36883c-0.42407,3.46076 -0.66724,6.9749 -0.66724,10.54834c0,3.14345 0.1809,6.24538 0.5071,9.30283c1.70221,0.21648 3.33621,1.18028 4.13986,3.13159c3.92338,9.55786 3.9649,19.98759 7.59766,29.57214c3.41628,9.01221 11.2749,15.34952 17.24152,22.78703c15.11524,13.19359 34.87152,21.20641 56.51386,21.20641c47.49572,0 86,-38.50428 86,-86c0,-4.57579 -0.36476,-9.06559 -1.05276,-13.44862z" fill="#ffffff"></path><path d="M86.59607,66.78641l-10.76186,-6.4589c-1.1091,-0.66428 -2.38131,-1.01717 -3.67428,-1.01717h-6.20683c-2.30717,0 -4.472,1.11503 -5.81241,2.99221l-11.3609,15.90407c-0.86593,1.20993 -1.33152,2.66303 -1.33152,4.15172v3.1731c0,2.17076 0.98752,4.2229 2.68083,5.57814l9.3829,7.50869c1.74076,1.39379 4.0331,1.892 6.19497,1.35228l2.87062,-0.71766c3.24724,-0.81255 6.62497,0.74138 8.12255,3.73655l3.0189,6.03483c0.23428,0.46559 0.41517,0.95786 0.53972,1.462l2.77572,11.09993l2.8469,11.39055c0.0771,0.31434 0.17793,0.61979 0.29655,0.91931l3.25021,8.12255c1.40566,3.51117 5.30234,5.32014 8.89062,4.12503v0c1.61621,-0.53972 2.98924,-1.63993 3.86703,-3.10193l7.08462,-11.80869c0.29952,-0.50117 0.66131,-0.96379 1.07352,-1.376l3.21759,-3.21759c1.34041,-1.33448 2.09366,-3.15234 2.09366,-5.04731v-9.36214c0,-1.62214 0.55159,-3.19683 1.56579,-4.4631l5.18966,-6.48855c2.70159,-3.37772 1.806,-8.36276 -1.90386,-10.5869l-5.8391,-3.50228c-1.28703,-0.774 -2.29828,-1.93055 -2.89138,-3.31248l-5.70269,-13.30924c-1.33152,-3.1049 -4.6529,-4.85455 -7.96538,-4.19028l-6.43517,1.28703c-1.74076,0.34993 -3.55269,0.03559 -5.07697,-0.87779z" fill="#2ecc71"></path><path d="M136.41379,112.68966l-8.89655,8.89655l-2.96552,14.82759l5.93103,5.93103l8.89655,-14.82759z" fill="#2ecc71"></path><path d="M90.10724,0.10379c-4.27331,7.94759 -12.25352,16.33703 -27.0811,17.54103c-2.60076,0.21055 -5.03248,1.4709 -6.63386,3.52897c-0.10379,0.13345 -0.21055,0.27283 -0.31731,0.41221c-7.52352,9.90483 2.94772,22.9709 14.49545,18.35359c2.08476,-0.83034 4.3089,-1.38786 6.53303,-1.38786c0,0 26.68966,-2.96552 41.51724,26.68966c0,0 7.47607,14.95214 22.42524,-3.11379c3.30655,-3.99752 9.63497,-3.60014 12.06966,0.98159c1.03793,1.95428 2.02545,4.472 2.84393,7.71628c0.91931,3.64462 4.36821,6.06745 8.0929,5.57221c2.11441,-0.28172 4.59062,-0.66428 7.25069,-1.17731c-5.14221,-41.07538 -39.22193,-73.14152 -81.19586,-75.11655z" fill="#2ecc71"></path><path d="M36.70421,48.22524c-0.70283,-4.214 -3.37772,-7.83786 -7.20028,-9.74766l-11.13552,-5.56628c-9.77138,12.42848 -16.20655,27.60303 -17.91172,44.19214h7.224c4.4631,0 8.63262,-2.23007 11.10883,-5.94586c1.29,-1.93352 3.06041,-3.49634 5.13924,-4.53724l5.80055,-2.90028c5.24303,-2.62152 8.16407,-8.35683 7.20028,-14.13959z" fill="#2ecc71"></path><path d="M3.47855,92.55676l-3.1049,1.33152c2.22117,24.39731 14.62593,45.838 32.93503,60.05469l1.74966,-15.76172c0.34697,-3.11083 1.43234,-6.09414 3.17014,-8.69786v0c2.14407,-3.21462 3.28876,-6.99566 3.28876,-10.85972v-0.82145c0,-6.42034 -4.53131,-11.94807 -10.8271,-13.20841v0c-2.60669,-0.52193 -5.00283,-1.80303 -6.88297,-3.68317l-5.4951,-5.4951c-3.89669,-3.89669 -9.76841,-5.02655 -14.83352,-2.85876z" fill="#2ecc71"></path></g></g></svg>