<svg xmlns="http://www.w3.org/2000/svg" x="0px" y="0px"
width="64" height="64"
viewBox="0 0 172 172"
style=" fill:#000000;"><g fill="none" fill-rule="nonzero" stroke="none" stroke-width="1" stroke-linecap="butt" stroke-linejoin="miter" stroke-miterlimit="10" stroke-dasharray="" stroke-dashoffset="0" font-family="none" font-weight="none" font-size="none" text-anchor="none" style="mix-blend-mode: normal"><path d="M0,172v-172h172v172z" fill="none"></path><g fill="#ffffff"><path d="M34.4,6.88c-5.68406,0 -10.32,4.63594 -10.32,10.32v123.84c0,5.68406 4.63594,10.32 10.32,10.32h3.44v-6.88h-3.44c-1.89469,0 -3.44,-1.54531 -3.44,-3.44v-17.2h110.08v17.2c0,1.89469 -1.54531,3.44 -3.44,3.44h-51.6v6.88h51.6c5.68406,0 10.32,-4.63594 10.32,-10.32v-123.84c0,-5.68406 -4.63594,-10.32 -10.32,-10.32zM48.16,27.52h13.76v13.76h-13.76zM48.16,58.48h13.76v13.76h-13.76zM48.16,89.44h13.76v13.76h-13.76zM44.72,130.72v36.55l17.2,-8.6l17.2,8.6v-36.55z"></path></g></g></svg>